<svg width="263" height="52" viewBox="0 0 263 52" fill="none" xmlns="http://www.w3.org/2000/svg">
<path d="M37.5189 22.7267V4.40351H42.3615V11.2093H49.429V4.40351H54.2715V22.7267H49.429V15.6592H42.3615V22.7267H37.5189Z" fill="white"/>
<path d="M57.1386 5.45054C57.1386 4.82232 57.3742 4.2988 57.8454 3.87999C58.3166 3.44372 58.9099 3.22559 59.6254 3.22559C60.3408 3.22559 60.9341 3.44372 61.4053 3.87999C61.8765 4.2988 62.1121 4.82232 62.1121 5.45054C62.1121 6.06132 61.8765 6.58484 61.4053 7.0211C60.9341 7.45737 60.3408 7.6755 59.6254 7.6755C58.9099 7.6755 58.3166 7.45737 57.8454 7.0211C57.3742 6.58484 57.1386 6.06132 57.1386 5.45054ZM57.4004 22.7267V9.11518H61.8503V22.7267H57.4004Z" fill="white"/>
<path d="M65.8362 20.6588C64.667 19.3674 64.0824 17.7009 64.0824 15.6592C64.0824 13.6174 64.667 11.9509 65.8362 10.6596C67.0054 9.36822 68.4276 8.72254 70.1029 8.72254C71.307 8.72254 72.3453 9.07155 73.2178 9.76958C73.6192 10.0837 73.9333 10.4327 74.1602 10.8166H74.4219V9.11518H78.8719V27.7001H65.9147V24.1664H74.4219V20.6326H74.1602C73.9159 21.0165 73.6018 21.3481 73.2178 21.6273C72.3628 22.273 71.3244 22.5958 70.1029 22.5958C68.4276 22.5958 67.0054 21.9501 65.8362 20.6588ZM69.4485 13.3557C68.925 13.9141 68.6632 14.6819 68.6632 15.6592C68.6632 16.6364 68.925 17.4042 69.4485 17.9627C69.972 18.5211 70.67 18.8003 71.5426 18.8003C72.4151 18.8003 73.1131 18.5211 73.6367 17.9627C74.1602 17.4042 74.4219 16.6364 74.4219 15.6592C74.4219 14.6819 74.1602 13.9141 73.6367 13.3557C73.1131 12.7973 72.4151 12.5181 71.5426 12.5181C70.67 12.5181 69.972 12.7973 69.4485 13.3557Z" fill="white"/>
<path d="M81.4772 22.7267V4.40351H85.9271V10.9475H86.1889C86.4332 10.5287 86.7473 10.1622 87.1312 9.84811C88.0212 9.09773 89.0595 8.72254 90.2461 8.72254C91.8516 8.72254 93.0993 9.21116 93.9893 10.1884C94.8967 11.1482 95.3504 12.5355 95.3504 14.3504V22.7267H90.9005V15.0048C90.9005 14.2195 90.6911 13.6087 90.2723 13.1725C89.8535 12.7362 89.2776 12.5181 88.5447 12.5181C87.7943 12.5181 87.1661 12.7973 86.66 13.3557C86.1714 13.8967 85.9271 14.6209 85.9271 15.5283V22.7267H81.4772Z" fill="white"/>
<path d="M105.174 27.7001V9.11518H109.624V10.9475H109.885C110.13 10.5461 110.461 10.1797 110.88 9.84811C111.84 9.09773 112.861 8.72254 113.943 8.72254C115.618 8.72254 117.04 9.38567 118.209 10.7119C119.378 12.0207 119.963 13.7571 119.963 15.9209C119.963 18.0848 119.378 19.8299 118.209 21.1561C117.04 22.4649 115.618 23.1193 113.943 23.1193C112.843 23.1193 111.822 22.7529 110.88 22.0199C110.461 21.6884 110.13 21.3132 109.885 20.8944H109.624V27.7001H105.174ZM110.409 13.408C109.885 14.0014 109.624 14.839 109.624 15.9209C109.624 17.0029 109.885 17.8405 110.409 18.4338C110.932 19.0272 111.63 19.3238 112.503 19.3238C113.375 19.3238 114.073 19.0272 114.597 18.4338C115.12 17.8405 115.382 17.0029 115.382 15.9209C115.382 14.839 115.12 14.0014 114.597 13.408C114.073 12.8147 113.375 12.5181 112.503 12.5181C111.63 12.5181 110.932 12.8147 110.409 13.408Z" fill="white"/>
<path d="M123.275 21.1561C122.106 19.8299 121.521 18.0848 121.521 15.9209C121.521 13.7571 122.106 12.0207 123.275 10.7119C124.444 9.38567 125.867 8.72254 127.542 8.72254C128.624 8.72254 129.645 9.09773 130.604 9.84811C131.006 10.1797 131.337 10.5461 131.599 10.9475H131.861V9.11518H136.311V22.7267H131.861V20.8944H131.599C131.355 21.3132 131.023 21.6884 130.604 22.0199C129.662 22.7529 128.641 23.1193 127.542 23.1193C125.867 23.1193 124.444 22.4649 123.275 21.1561ZM126.887 13.408C126.364 14.0014 126.102 14.839 126.102 15.9209C126.102 17.0029 126.364 17.8405 126.887 18.4338C127.411 19.0272 128.109 19.3238 128.981 19.3238C129.854 19.3238 130.552 19.0272 131.076 18.4338C131.599 17.8405 131.861 17.0029 131.861 15.9209C131.861 14.839 131.599 14.0014 131.076 13.408C130.552 12.8147 129.854 12.5181 128.981 12.5181C128.109 12.5181 127.411 12.8147 126.887 13.408Z" fill="white"/>
<path d="M138.131 18.2768H142.581C142.651 18.5385 142.799 18.7828 143.026 19.0097C143.497 19.4809 144.177 19.7165 145.067 19.7165C146.289 19.7165 146.9 19.4111 146.9 18.8003C146.9 18.5211 146.725 18.303 146.376 18.1459C146.027 17.9714 145.504 17.7969 144.806 17.6224C144.23 17.4828 143.855 17.3955 143.68 17.3606C143.506 17.3257 143.139 17.2297 142.581 17.0727C142.022 16.8982 141.621 16.7498 141.377 16.6277C141.15 16.4881 140.827 16.2961 140.408 16.0518C140.007 15.7901 139.71 15.5283 139.518 15.2665C139.344 14.9873 139.178 14.647 139.021 14.2457C138.864 13.8269 138.785 13.3819 138.785 12.9107C138.785 11.759 139.3 10.773 140.33 9.95281C141.359 9.13263 142.808 8.72254 144.675 8.72254C147.013 8.72254 148.863 9.49037 150.224 11.026C150.765 11.6892 151.14 12.4483 151.35 13.3033H147.031C146.926 13.0241 146.804 12.806 146.664 12.6489C146.263 12.2127 145.687 11.9945 144.937 11.9945C143.89 11.9945 143.366 12.2999 143.366 12.9107C143.366 13.2074 143.54 13.4342 143.89 13.5913C144.239 13.7483 144.771 13.8967 145.486 14.0363C147.284 14.4551 148.496 14.8215 149.125 15.1357C150.695 15.9035 151.481 17.0814 151.481 18.6694C151.481 19.9259 150.922 20.9816 149.805 21.8367C148.706 22.6918 147.127 23.1193 145.067 23.1193C142.537 23.1193 140.609 22.3166 139.283 20.7111C138.689 19.9957 138.305 19.1842 138.131 18.2768Z" fill="white"/>
<path d="M152.65 18.2768H157.1C157.17 18.5385 157.318 18.7828 157.545 19.0097C158.016 19.4809 158.697 19.7165 159.587 19.7165C160.808 19.7165 161.419 19.4111 161.419 18.8003C161.419 18.5211 161.245 18.303 160.896 18.1459C160.547 17.9714 160.023 17.7969 159.325 17.6224C158.749 17.4828 158.374 17.3955 158.2 17.3606C158.025 17.3257 157.659 17.2297 157.1 17.0727C156.542 16.8982 156.14 16.7498 155.896 16.6277C155.669 16.4881 155.346 16.2961 154.928 16.0518C154.526 15.7901 154.23 15.5283 154.038 15.2665C153.863 14.9873 153.697 14.647 153.54 14.2457C153.383 13.8269 153.305 13.3819 153.305 12.9107C153.305 11.759 153.819 10.773 154.849 9.95281C155.879 9.13263 157.327 8.72254 159.194 8.72254C161.533 8.72254 163.382 9.49037 164.744 11.026C165.285 11.6892 165.66 12.4483 165.869 13.3033H161.55C161.445 13.0241 161.323 12.806 161.184 12.6489C160.782 12.2127 160.206 11.9945 159.456 11.9945C158.409 11.9945 157.885 12.2999 157.885 12.9107C157.885 13.2074 158.06 13.4342 158.409 13.5913C158.758 13.7483 159.29 13.8967 160.006 14.0363C161.803 14.4551 163.016 14.8215 163.644 15.1357C165.215 15.9035 166 17.0814 166 18.6694C166 19.9259 165.442 20.9816 164.325 21.8367C163.225 22.6918 161.646 23.1193 159.587 23.1193C157.057 23.1193 155.128 22.3166 153.802 20.7111C153.209 19.9957 152.825 19.1842 152.65 18.2768Z" fill="white"/>
<path fill-rule="evenodd" clip-rule="evenodd" d="M5.2352 6.14877V21.8544H20.9408L5.2352 6.14877ZM0 0.913574V27.0896H26.176V0.913574H0Z" fill="#FF6E30"/>
<path d="M1.932 45.1242C1.01733 44.2842 0.56 43.2529 0.56 42.0302C0.56 40.8076 1.01733 39.7809 1.932 38.9502C2.84667 38.1102 4.046 37.6902 5.53 37.6902V36.5702H6.79V37.6902C8.274 37.6902 9.47333 38.1102 10.388 38.9502C11.3027 39.7809 11.76 40.8076 11.76 42.0302C11.76 43.2529 11.3027 44.2842 10.388 45.1242C9.47333 45.9549 8.274 46.3702 6.79 46.3702V47.4902H5.53V46.3702C4.046 46.3702 2.84667 45.9549 1.932 45.1242ZM6.79 38.8102V45.2502C7.91933 45.2502 8.82 44.9469 9.492 44.3402C10.164 43.7336 10.5 42.9636 10.5 42.0302C10.5 41.0969 10.164 40.3269 9.492 39.7202C8.82 39.1136 7.91933 38.8102 6.79 38.8102ZM2.828 39.7202C2.156 40.3269 1.82 41.0969 1.82 42.0302C1.82 42.9636 2.156 43.7336 2.828 44.3402C3.5 44.9469 4.40067 45.2502 5.53 45.2502V38.8102C4.40067 38.8102 3.5 39.1136 2.828 39.7202ZM13.9144 46.1042C13.2237 45.4136 12.8784 44.5456 12.8784 43.5002C12.8784 42.4549 13.2237 41.5869 13.9144 40.8962C14.605 40.2056 15.473 39.8602 16.5184 39.8602C17.5637 39.8602 18.4317 40.2056 19.1224 40.8962C19.813 41.5869 20.1584 42.4549 20.1584 43.5002C20.1584 44.5456 19.813 45.4136 19.1224 46.1042C18.4317 46.7949 17.5637 47.1402 16.5184 47.1402C15.473 47.1402 14.605 46.7949 13.9144 46.1042ZM14.7124 41.6382C14.2364 42.1236 13.9984 42.7442 13.9984 43.5002C13.9984 44.2562 14.2364 44.8769 14.7124 45.3622C15.1884 45.8476 15.7904 46.0902 16.5184 46.0902C17.2464 46.0902 17.8484 45.8476 18.3244 45.3622C18.8004 44.8769 19.0384 44.2562 19.0384 43.5002C19.0384 42.7442 18.8004 42.1236 18.3244 41.6382C17.8484 41.1529 17.2464 40.9102 16.5184 40.9102C15.7904 40.9102 15.1884 41.1529 14.7124 41.6382ZM20.7829 41.0502V40.0002H26.8029V41.0502H24.3529V47.0002H23.2329V41.0502H20.7829ZM28.4749 46.1042C27.7842 45.4136 27.4389 44.5456 27.4389 43.5002C27.4389 42.4549 27.7842 41.5869 28.4749 40.8962C29.1656 40.2056 30.0336 39.8602 31.0789 39.8602C32.1242 39.8602 32.9922 40.2056 33.6829 40.8962C34.3736 41.5869 34.7189 42.4549 34.7189 43.5002C34.7189 44.5456 34.3736 45.4136 33.6829 46.1042C32.9922 46.7949 32.1242 47.1402 31.0789 47.1402C30.0336 47.1402 29.1656 46.7949 28.4749 46.1042ZM29.2729 41.6382C28.7969 42.1236 28.5589 42.7442 28.5589 43.5002C28.5589 44.2562 28.7969 44.8769 29.2729 45.3622C29.7489 45.8476 30.3509 46.0902 31.0789 46.0902C31.8069 46.0902 32.4089 45.8476 32.8849 45.3622C33.3609 44.8769 33.5989 44.2562 33.5989 43.5002C33.5989 42.7442 33.3609 42.1236 32.8849 41.6382C32.4089 41.1529 31.8069 40.9102 31.0789 40.9102C30.3509 40.9102 29.7489 41.1529 29.2729 41.6382ZM36.8414 46.1042C36.1694 45.4136 35.8334 44.5456 35.8334 43.5002C35.8334 42.4549 36.1694 41.5869 36.8414 40.8962C37.5134 40.2056 38.3441 39.8602 39.3334 39.8602C40.4814 39.8602 41.3914 40.2709 42.0634 41.0922C42.3528 41.4562 42.5628 41.8622 42.6934 42.3102H41.5734C41.4708 42.0582 41.3168 41.8249 41.1114 41.6102C40.6634 41.1436 40.0708 40.9102 39.3334 40.9102C38.6521 40.9102 38.0828 41.1529 37.6254 41.6382C37.1774 42.1236 36.9534 42.7442 36.9534 43.5002C36.9534 44.2562 37.1868 44.8769 37.6534 45.3622C38.1201 45.8476 38.6801 46.0902 39.3334 46.0902C40.0988 46.0902 40.7101 45.8336 41.1674 45.3202C41.3728 45.1056 41.5314 44.8489 41.6434 44.5502H42.7634C42.6421 45.0262 42.4274 45.4602 42.1194 45.8522C41.4101 46.7109 40.4814 47.1402 39.3334 47.1402C38.3441 47.1402 37.5134 46.7949 36.8414 46.1042ZM43.2595 41.0502V40.0002H49.2795V41.0502H46.8295V47.0002H45.7095V41.0502H43.2595ZM49.6355 40.0002H50.8255L52.3655 45.9502H53.4155L55.2355 40.0002H56.4255L53.4855 49.6602H52.2955L53.1355 47.0002H51.5255L49.6355 40.0002ZM56.2204 48.6102V45.9502H56.9904L58.6004 40.0002H61.5404L63.1504 45.9502H63.9204V48.6102H62.8004V47.0002H57.3404V48.6102H56.2204ZM58.1104 45.9502H62.0304L60.7004 41.0502H59.4404L58.1104 45.9502ZM64.9644 47.0002V40.0002H66.0844V45.2502L66.0704 45.3902H66.0984L69.8644 40.0002H71.1244V47.0002H70.0044V41.7502L70.0184 41.6102H69.9904L66.2244 47.0002H64.9644ZM72.8055 47.0002L74.2055 44.4802C73.9721 44.3776 73.7388 44.2282 73.5055 44.0322C73.0388 43.6029 72.8055 43.0522 72.8055 42.3802C72.8055 41.6989 73.0528 41.1342 73.5475 40.6862C74.0421 40.2289 74.7001 40.0002 75.5215 40.0002H78.6855V47.0002H77.5655V44.7602H75.3255L74.0935 47.0002H72.8055ZM74.3315 41.4142C74.0608 41.6569 73.9255 41.9789 73.9255 42.3802C73.9255 42.7816 74.0608 43.1036 74.3315 43.3462C74.6115 43.5889 75.0128 43.7102 75.5355 43.7102H77.5655V41.0502H75.5355C75.0128 41.0502 74.6115 41.1716 74.3315 41.4142ZM84.7098 47.0002V37.2002H85.9698V41.4702H91.2198V37.2002H92.4798V47.0002H91.2198V42.6602H85.9698V47.0002H84.7098ZM94.5917 38.4462C94.4423 38.2969 94.3677 38.1149 94.3677 37.9002C94.3677 37.6856 94.4423 37.5036 94.5917 37.3542C94.741 37.2049 94.923 37.1302 95.1377 37.1302C95.3523 37.1302 95.5343 37.2049 95.6837 37.3542C95.833 37.5036 95.9077 37.6856 95.9077 37.9002C95.9077 38.1149 95.833 38.2969 95.6837 38.4462C95.5343 38.5956 95.3523 38.6702 95.1377 38.6702C94.923 38.6702 94.741 38.5956 94.5917 38.4462ZM94.5777 47.0002V40.0002H95.6977V47.0002H94.5777ZM98.2138 46.1042C97.5605 45.4042 97.2338 44.5362 97.2338 43.5002C97.2338 42.4642 97.5605 41.6009 98.2138 40.9102C98.8672 40.2102 99.6605 39.8602 100.594 39.8602C101.182 39.8602 101.681 39.9722 102.092 40.1962C102.502 40.4202 102.796 40.6582 102.974 40.9102L103.1 41.1202H103.114V40.0002H104.234V49.6602H98.2138V48.6102H103.114V45.8802H103.1L102.974 46.0762C102.806 46.3282 102.516 46.5709 102.106 46.8042C101.695 47.0282 101.191 47.1402 100.594 47.1402C99.6605 47.1402 98.8672 46.7949 98.2138 46.1042ZM99.0258 41.6382C98.5778 42.1236 98.3538 42.7442 98.3538 43.5002C98.3538 44.2562 98.5778 44.8769 99.0258 45.3622C99.4832 45.8476 100.052 46.0902 100.734 46.0902C101.415 46.0902 101.98 45.8476 102.428 45.3622C102.885 44.8769 103.114 44.2562 103.114 43.5002C103.114 42.7442 102.885 42.1236 102.428 41.6382C101.98 41.1529 101.415 40.9102 100.734 40.9102C100.052 40.9102 99.4832 41.1529 99.0258 41.6382ZM106.199 47.0002V37.2002H107.319V41.0502H107.333C107.473 40.8262 107.655 40.6302 107.879 40.4622C108.392 40.0609 108.999 39.8602 109.699 39.8602C110.548 39.8602 111.225 40.1309 111.729 40.6722C112.242 41.2042 112.499 41.9369 112.499 42.8702V47.0002H111.379V42.9402C111.379 42.2682 111.211 41.7642 110.875 41.4282C110.539 41.0829 110.077 40.9102 109.489 40.9102C108.845 40.9102 108.322 41.1249 107.921 41.5542C107.519 41.9742 107.319 42.5296 107.319 43.2202V47.0002H106.199ZM118.244 49.6602V40.0002H119.364V41.1202H119.378L119.518 40.9102C119.676 40.6676 119.961 40.4342 120.372 40.2102C120.782 39.9769 121.286 39.8602 121.884 39.8602C122.817 39.8602 123.61 40.2102 124.264 40.9102C124.917 41.6009 125.244 42.4642 125.244 43.5002C125.244 44.5362 124.917 45.4042 124.264 46.1042C123.61 46.7949 122.817 47.1402 121.884 47.1402C121.286 47.1402 120.778 47.0282 120.358 46.8042C119.947 46.5709 119.667 46.3282 119.518 46.0762L119.378 45.8802H119.364V49.6602H118.244ZM120.036 41.6382C119.588 42.1236 119.364 42.7442 119.364 43.5002C119.364 44.2562 119.588 44.8769 120.036 45.3622C120.493 45.8476 121.062 46.0902 121.744 46.0902C122.425 46.0902 122.99 45.8476 123.438 45.3622C123.895 44.8769 124.124 44.2562 124.124 43.5002C124.124 42.7442 123.895 42.1236 123.438 41.6382C122.99 41.1529 122.425 40.9102 121.744 40.9102C121.062 40.9102 120.493 41.1529 120.036 41.6382ZM127.349 46.1042C126.695 45.4042 126.369 44.5362 126.369 43.5002C126.369 42.4642 126.695 41.6009 127.349 40.9102C128.002 40.2102 128.795 39.8602 129.729 39.8602C130.317 39.8602 130.811 39.9722 131.213 40.1962C131.623 40.4202 131.922 40.6629 132.109 40.9242L132.235 41.1342H132.249V40.0002H133.369V47.0002H132.249V45.8802H132.235L132.109 46.0762C131.941 46.3282 131.651 46.5709 131.241 46.8042C130.83 47.0282 130.326 47.1402 129.729 47.1402C128.795 47.1402 128.002 46.7949 127.349 46.1042ZM128.161 41.6382C127.713 42.1236 127.489 42.7442 127.489 43.5002C127.489 44.2562 127.713 44.8769 128.161 45.3622C128.618 45.8476 129.187 46.0902 129.869 46.0902C130.55 46.0902 131.115 45.8476 131.563 45.3622C132.02 44.8769 132.249 44.2562 132.249 43.5002C132.249 42.7442 132.02 42.1236 131.563 41.6382C131.115 41.1529 130.55 40.9102 129.869 40.9102C129.187 40.9102 128.618 41.1529 128.161 41.6382ZM134.844 44.8302H136.034C136.136 45.0822 136.272 45.2922 136.44 45.4602C136.86 45.8802 137.401 46.0902 138.064 46.0902C138.661 46.0902 139.1 45.9922 139.38 45.7962C139.669 45.6002 139.814 45.3482 139.814 45.0402C139.814 44.8722 139.753 44.7276 139.632 44.6062C139.52 44.4849 139.333 44.3776 139.072 44.2842C138.81 44.1909 138.577 44.1209 138.372 44.0742C138.176 44.0182 137.886 43.9529 137.504 43.8782C135.964 43.5609 135.194 42.8749 135.194 41.8202C135.194 41.2696 135.427 40.8076 135.894 40.4342C136.36 40.0516 137.014 39.8602 137.854 39.8602C138.899 39.8602 139.725 40.2102 140.332 40.9102C140.574 41.2276 140.752 41.5776 140.864 41.9602H139.674C139.59 41.7736 139.468 41.6009 139.31 41.4422C138.955 41.0876 138.47 40.9102 137.854 40.9102C137.359 40.9102 136.976 41.0036 136.706 41.1902C136.444 41.3769 136.314 41.5869 136.314 41.8202C136.314 41.9882 136.37 42.1329 136.482 42.2542C136.603 42.3756 136.794 42.4829 137.056 42.5762C137.317 42.6696 137.546 42.7442 137.742 42.8002C137.947 42.8469 138.241 42.9076 138.624 42.9822C140.164 43.2996 140.934 43.9856 140.934 45.0402C140.934 45.6376 140.682 46.1369 140.178 46.5382C139.674 46.9396 138.969 47.1402 138.064 47.1402C136.925 47.1402 136.048 46.7576 135.432 45.9922C135.17 45.6562 134.974 45.2689 134.844 44.8302ZM141.98 44.8302H143.17C143.273 45.0822 143.408 45.2922 143.576 45.4602C143.996 45.8802 144.538 46.0902 145.2 46.0902C145.798 46.0902 146.236 45.9922 146.516 45.7962C146.806 45.6002 146.95 45.3482 146.95 45.0402C146.95 44.8722 146.89 44.7276 146.768 44.6062C146.656 44.4849 146.47 44.3776 146.208 44.2842C145.947 44.1909 145.714 44.1209 145.508 44.0742C145.312 44.0182 145.023 43.9529 144.64 43.8782C143.1 43.5609 142.33 42.8749 142.33 41.8202C142.33 41.2696 142.564 40.8076 143.03 40.4342C143.497 40.0516 144.15 39.8602 144.99 39.8602C146.036 39.8602 146.862 40.2102 147.468 40.9102C147.711 41.2276 147.888 41.5776 148 41.9602H146.81C146.726 41.7736 146.605 41.6009 146.446 41.4422C146.092 41.0876 145.606 40.9102 144.99 40.9102C144.496 40.9102 144.113 41.0036 143.842 41.1902C143.581 41.3769 143.45 41.5869 143.45 41.8202C143.45 41.9882 143.506 42.1329 143.618 42.2542C143.74 42.3756 143.931 42.4829 144.192 42.5762C144.454 42.6696 144.682 42.7442 144.878 42.8002C145.084 42.8469 145.378 42.9076 145.76 42.9822C147.3 43.2996 148.07 43.9856 148.07 45.0402C148.07 45.6376 147.818 46.1369 147.314 46.5382C146.81 46.9396 146.106 47.1402 145.2 47.1402C144.062 47.1402 143.184 46.7576 142.568 45.9922C142.307 45.6562 142.111 45.2689 141.98 44.8302ZM150.181 43.1502C149.472 42.4409 149.117 41.5776 149.117 40.5602C149.117 39.5429 149.472 38.6842 150.181 37.9842C150.9 37.2749 151.782 36.9202 152.827 36.9202C153.872 36.9202 154.75 37.2749 155.459 37.9842C156.178 38.6842 156.537 39.5429 156.537 40.5602C156.537 41.5776 156.178 42.4409 155.459 43.1502C154.75 43.8502 153.872 44.2002 152.827 44.2002C151.782 44.2002 150.9 43.8502 150.181 43.1502ZM150.825 38.5582C150.293 39.0902 150.027 39.7576 150.027 40.5602C150.027 41.3629 150.293 42.0302 150.825 42.5622C151.357 43.0942 152.024 43.3602 152.827 43.3602C153.63 43.3602 154.297 43.0942 154.829 42.5622C155.361 42.0302 155.627 41.3629 155.627 40.5602C155.627 39.7576 155.361 39.0902 154.829 38.5582C154.297 38.0262 153.63 37.7602 152.827 37.7602C152.024 37.7602 151.357 38.0262 150.825 38.5582ZM151.427 42.1702V38.7402H153.037C154.017 38.7402 154.507 39.1602 154.507 40.0002C154.507 40.3082 154.39 40.5789 154.157 40.8122C154.054 40.9149 153.938 40.9942 153.807 41.0502L154.577 42.1702H153.597L152.897 41.1902H152.337V42.1702H151.427ZM152.337 40.4202H153.037C153.42 40.4202 153.611 40.2802 153.611 40.0002C153.611 39.7202 153.42 39.5802 153.037 39.5802H152.337V40.4202ZM161.365 47.0002V45.8102L164.585 43.4302C165.472 42.7676 166.102 42.1982 166.475 41.7222C166.849 41.2462 167.035 40.6956 167.035 40.0702C167.035 39.5009 166.839 39.0342 166.447 38.6702C166.065 38.2969 165.561 38.1102 164.935 38.1102C164.133 38.1102 163.535 38.4369 163.143 39.0902C162.957 39.3889 162.831 39.7156 162.765 40.0702H161.435C161.519 39.4916 161.701 38.9689 161.981 38.5022C162.644 37.4476 163.629 36.9202 164.935 36.9202C165.906 36.9202 166.709 37.2236 167.343 37.8302C167.978 38.4369 168.295 39.1836 168.295 40.0702C168.295 40.9196 168.053 41.6662 167.567 42.3102C167.091 42.9449 166.377 43.5982 165.425 44.2702L163.395 45.7122L163.255 45.7962V45.8242L163.381 45.8102H168.295V47.0002H161.365ZM170.988 45.8382C170.129 44.8769 169.7 43.6309 169.7 42.1002C169.7 40.5696 170.129 39.3236 170.988 38.3622C171.846 37.4009 172.887 36.9202 174.11 36.9202C175.332 36.9202 176.373 37.4009 177.232 38.3622C178.09 39.3236 178.52 40.5696 178.52 42.1002C178.52 43.6309 178.09 44.8769 177.232 45.8382C176.373 46.7996 175.332 47.2802 174.11 47.2802C172.887 47.2802 171.846 46.7996 170.988 45.8382ZM171.842 39.1742C171.254 39.8742 170.96 40.8496 170.96 42.1002C170.96 43.3509 171.254 44.3309 171.842 45.0402C172.439 45.7402 173.195 46.0902 174.11 46.0902C175.024 46.0902 175.776 45.7402 176.364 45.0402C176.961 44.3309 177.26 43.3509 177.26 42.1002C177.26 40.8496 176.961 39.8742 176.364 39.1742C175.776 38.4649 175.024 38.1102 174.11 38.1102C173.195 38.1102 172.439 38.4649 171.842 39.1742ZM179.643 40.0702V38.6702L181.533 37.2002H182.653V47.0002H181.393V38.7402L179.643 40.0702ZM184.407 44.3402C184.407 43.4816 184.743 42.8002 185.415 42.2962C185.723 42.0722 186.064 41.9136 186.437 41.8202V41.7502C186.139 41.6476 185.868 41.4982 185.625 41.3022C185.093 40.8636 184.827 40.2896 184.827 39.5802C184.827 38.8429 185.135 38.2176 185.751 37.7042C186.377 37.1816 187.212 36.9202 188.257 36.9202C189.303 36.9202 190.133 37.1816 190.749 37.7042C191.375 38.2176 191.687 38.8429 191.687 39.5802C191.687 40.2802 191.417 40.8542 190.875 41.3022C190.623 41.5076 190.357 41.6569 190.077 41.7502V41.8202C190.432 41.9136 190.768 42.0722 191.085 42.2962C191.767 42.8096 192.107 43.4909 192.107 44.3402C192.107 45.1429 191.757 45.8336 191.057 46.4122C190.367 46.9909 189.433 47.2802 188.257 47.2802C187.081 47.2802 186.143 46.9909 185.443 46.4122C184.753 45.8336 184.407 45.1429 184.407 44.3402ZM186.087 39.7202C186.087 40.1309 186.283 40.4902 186.675 40.7982C187.067 41.1062 187.595 41.2602 188.257 41.2602C188.92 41.2602 189.447 41.1062 189.839 40.7982C190.231 40.4902 190.427 40.1309 190.427 39.7202C190.427 39.2442 190.241 38.8569 189.867 38.5582C189.503 38.2596 188.967 38.1102 188.257 38.1102C187.548 38.1102 187.007 38.2596 186.633 38.5582C186.269 38.8569 186.087 39.2442 186.087 39.7202ZM186.339 42.9822C185.891 43.3276 185.667 43.7569 185.667 44.2702C185.667 44.7836 185.891 45.2176 186.339 45.5722C186.787 45.9176 187.427 46.0902 188.257 46.0902C189.088 46.0902 189.727 45.9176 190.175 45.5722C190.623 45.2176 190.847 44.7836 190.847 44.2702C190.847 43.7569 190.623 43.3276 190.175 42.9822C189.727 42.6276 189.088 42.4502 188.257 42.4502C187.427 42.4502 186.787 42.6276 186.339 42.9822ZM193.572 43.7102V42.5902H198.612V43.7102H193.572ZM199.879 47.0002V45.8102L203.099 43.4302C203.986 42.7676 204.616 42.1982 204.989 41.7222C205.362 41.2462 205.549 40.6956 205.549 40.0702C205.549 39.5009 205.353 39.0342 204.961 38.6702C204.578 38.2969 204.074 38.1102 203.449 38.1102C202.646 38.1102 202.049 38.4369 201.657 39.0902C201.47 39.3889 201.344 39.7156 201.279 40.0702H199.949C200.033 39.4916 200.215 38.9689 200.495 38.5022C201.158 37.4476 202.142 36.9202 203.449 36.9202C204.42 36.9202 205.222 37.2236 205.857 37.8302C206.492 38.4369 206.809 39.1836 206.809 40.0702C206.809 40.9196 206.566 41.6662 206.081 42.3102C205.605 42.9449 204.891 43.5982 203.939 44.2702L201.909 45.7122L201.769 45.7962V45.8242L201.895 45.8102H206.809V47.0002H199.879ZM209.501 45.8382C208.643 44.8769 208.213 43.6309 208.213 42.1002C208.213 40.5696 208.643 39.3236 209.501 38.3622C210.36 37.4009 211.401 36.9202 212.623 36.9202C213.846 36.9202 214.887 37.4009 215.745 38.3622C216.604 39.3236 217.033 40.5696 217.033 42.1002C217.033 43.6309 216.604 44.8769 215.745 45.8382C214.887 46.7996 213.846 47.2802 212.623 47.2802C211.401 47.2802 210.36 46.7996 209.501 45.8382ZM210.355 39.1742C209.767 39.8742 209.473 40.8496 209.473 42.1002C209.473 43.3509 209.767 44.3309 210.355 45.0402C210.953 45.7402 211.709 46.0902 212.623 46.0902C213.538 46.0902 214.289 45.7402 214.877 45.0402C215.475 44.3309 215.773 43.3509 215.773 42.1002C215.773 40.8496 215.475 39.8742 214.877 39.1742C214.289 38.4649 213.538 38.1102 212.623 38.1102C211.709 38.1102 210.953 38.4649 210.355 39.1742ZM218.227 47.0002V45.8102L221.447 43.4302C222.333 42.7676 222.963 42.1982 223.337 41.7222C223.71 41.2462 223.897 40.6956 223.897 40.0702C223.897 39.5009 223.701 39.0342 223.309 38.6702C222.926 38.2969 222.422 38.1102 221.797 38.1102C220.994 38.1102 220.397 38.4369 220.005 39.0902C219.818 39.3889 219.692 39.7156 219.627 40.0702H218.297C218.381 39.4916 218.563 38.9689 218.843 38.5022C219.505 37.4476 220.49 36.9202 221.797 36.9202C222.767 36.9202 223.57 37.2236 224.205 37.8302C224.839 38.4369 225.157 39.1836 225.157 40.0702C225.157 40.9196 224.914 41.6662 224.429 42.3102C223.953 42.9449 223.239 43.5982 222.287 44.2702L220.257 45.7122L220.117 45.7962V45.8242L220.243 45.8102H225.157V47.0002H218.227ZM227.849 45.8382C226.99 44.8769 226.561 43.6309 226.561 42.1002C226.561 40.5696 226.99 39.3236 227.849 38.3622C228.708 37.4009 229.748 36.9202 230.971 36.9202C232.194 36.9202 233.234 37.4009 234.093 38.3622C234.952 39.3236 235.381 40.5696 235.381 42.1002C235.381 43.6309 234.952 44.8769 234.093 45.8382C233.234 46.7996 232.194 47.2802 230.971 47.2802C229.748 47.2802 228.708 46.7996 227.849 45.8382ZM228.703 39.1742C228.115 39.8742 227.821 40.8496 227.821 42.1002C227.821 43.3509 228.115 44.3309 228.703 45.0402C229.3 45.7402 230.056 46.0902 230.971 46.0902C231.886 46.0902 232.637 45.7402 233.225 45.0402C233.822 44.3309 234.121 43.3509 234.121 42.1002C234.121 40.8496 233.822 39.8742 233.225 39.1742C232.637 38.4649 231.886 38.1102 230.971 38.1102C230.056 38.1102 229.3 38.4649 228.703 39.1742Z" fill="#E9E9E9"/>
</svg>
